<svg class="svg-icon" style="width: 29px; height: 29px;vertical-align: middle;fill: currentColor;overflow: hidden;" viewBox="0 0 1024 1024" version="1.1" xmlns="http://www.w3.org/2000/svg"><path d="M249.344 288.448c0-19.2 19.2-31.936 32-31.936H543.36c19.2 0 32 12.8 32 31.936s-12.8 31.936-32 31.936H281.344c-12.8 0-32-12.8-32-32z m492.16 414.976h-460.16c-19.2 0-32 12.736-32 31.872 0 19.2 19.2 32 32 32h453.76c19.2 0 32-12.8 32-32 0-19.136-12.8-31.872-25.6-31.872z m0-223.488h-460.16c-12.8 0-32 12.8-32 32 0 19.072 12.8 31.872 32 31.872h453.76c19.2 0 32-12.8 32-31.936 0-19.2-12.8-31.936-25.6-31.936z m217.28 32v446.848c0 38.272-25.536 63.808-63.872 63.808H127.936c-38.4 0-63.936-25.536-63.936-63.808V65.024c0-38.336 25.6-63.872 63.936-63.872h556.032c6.4 0 12.8 6.4 12.8 6.4l255.68 255.36c6.4 12.8 6.4 25.536 6.4 38.272 0 12.8-19.2 19.2-32 19.2h-223.68c-38.4 0-63.936-25.6-63.936-63.872V65.024h-511.36V958.72h767.04V511.872c0-19.2 12.8-31.936 32-31.936 19.136 0 31.872 12.8 31.872 32z m-108.608-255.424l-147.008-146.816v146.816h147.008z" fill="#000000" /><path d="M958.784 293.12v235.84h-63.744V288z" fill="#000000" /><path d="M249.344 288.448c0-19.2 19.2-31.936 32-31.936H543.36c19.2 0 32 12.8 32 31.936s-12.8 31.936-32 31.936H281.344c-12.8 0-32-12.8-32-32z m492.16 414.976h-460.16c-19.2 0-32 12.736-32 31.872 0 19.2 19.2 32 32 32h453.76c19.2 0 32-12.8 32-32 0-19.136-12.8-31.872-25.6-31.872z m0-223.488h-460.16c-12.8 0-32 12.8-32 32 0 19.072 12.8 31.872 32 31.872h453.76c19.2 0 32-12.8 32-31.936 0-19.2-12.8-31.936-25.6-31.936z m217.28 32v446.848c0 38.272-25.536 63.808-63.872 63.808H127.936c-38.4 0-63.936-25.536-63.936-63.808V65.024C64 26.688 89.6 1.152 127.936 1.152h556.032c6.4 0 12.8 6.4 12.8 6.4l255.68 255.36c6.4 12.8 6.4 25.536 6.4 38.272 0 12.8-19.2 19.2-32 19.2H703.168c-38.4 0-63.936-25.6-63.936-63.872V65.024H127.872V958.72h767.04V511.872c0-19.2 12.8-31.936 32-31.936 19.136 0 31.872 12.8 31.872 32z m-108.608-255.424L703.168 109.696v146.816h147.008z" fill="#000000" /><path d="M958.784 293.12v235.84h-63.744V288z" fill="#E8E8E8" /></svg>